<?xml version="1.0" encoding="UTF-8"?>
<!DOCTYPE svg PUBLIC "-//W3C//DTD SVG 1.1//EN" "http://www.w3.org/Graphics/SVG/1.1/DTD/svg11.dtd">
<svg xmlns="http://www.w3.org/2000/svg" version="1.1" width="4752px" height="1425px" style="shape-rendering:geometricPrecision; text-rendering:geometricPrecision; image-rendering:optimizeQuality; fill-rule:evenodd; clip-rule:evenodd" xmlns:xlink="http://www.w3.org/1999/xlink">
<g><path style="opacity:0.961" fill="#000000" d="M 4209.5,271.5 C 4199.08,222.999 4198.92,174.332 4209,125.5C 4217.48,87.0015 4234.14,52.6681 4259,22.5C 4263.7,17.4664 4268.7,12.7998 4274,8.5C 4271.18,15.9475 4268.52,23.6142 4266,31.5C 4261.25,48.642 4266.42,61.642 4281.5,70.5C 4231.34,112.671 4206.68,166.837 4207.5,233C 4207.59,245.869 4208.25,258.702 4209.5,271.5 Z"/></g>
<g><path style="opacity:0.993" fill="#000000" d="M 461.5,13.5 C 462.496,13.4142 463.329,13.7476 464,14.5C 566.196,277.421 668.196,540.421 770,803.5C 788.512,845.988 815.345,882.155 850.5,912C 873.832,929.999 899.832,942.665 928.5,950C 845.165,950.833 761.831,950.667 678.5,949.5C 654.303,882.941 629.969,816.441 605.5,750C 491.499,749.167 377.499,749.333 263.5,750.5C 239.26,817.055 214.927,883.555 190.5,950C 128.5,950.667 66.5,950.667 4.5,950C 20.1723,945.927 35.839,941.594 51.5,937C 74.6713,929.173 94.838,916.673 112,899.5C 116.795,893.358 120.795,886.691 124,879.5C 236.804,590.916 349.304,302.249 461.5,13.5 Z M 433.5,281.5 C 434.497,281.47 435.164,281.97 435.5,283C 486.975,424.427 538.642,565.76 590.5,707C 486.834,707.5 383.167,707.667 279.5,707.5C 331.03,565.576 382.364,423.576 433.5,281.5 Z"/></g>
<g><path style="opacity:0.992" fill="#000000" d="M 4751.5,686.5 C 4751.5,702.5 4751.5,718.5 4751.5,734.5C 4739.37,830.14 4688.37,895.64 4598.5,931C 4560.51,944.471 4521.34,950.971 4481,950.5C 4413.04,949.363 4346.21,940.197 4280.5,923C 4279.17,856.234 4279.17,789.401 4280.5,722.5C 4287.73,737.289 4295.23,751.955 4303,766.5C 4325.83,807.687 4357.33,840.52 4397.5,865C 4444.7,890.589 4494.37,896.922 4546.5,884C 4604.86,863.772 4634.52,822.606 4635.5,760.5C 4635.45,728.854 4626.28,700.187 4608,674.5C 4592.39,652.877 4574.56,633.044 4554.5,615C 4512.75,580.13 4471.42,544.797 4430.5,509C 4408.94,489.109 4388.44,468.276 4369,446.5C 4344.59,419.371 4324.92,389.038 4310,355.5C 4288.68,299.092 4287.01,242.092 4305,184.5C 4329.53,118.638 4374.36,72.4709 4439.5,46C 4490.85,27.0337 4543.85,20.0337 4598.5,25C 4640.99,27.275 4682.49,34.775 4723,47.5C 4723.67,114.5 4723.67,181.5 4723,248.5C 4715.35,225.189 4706.01,202.522 4695,180.5C 4675.01,143.506 4646.17,115.673 4608.5,97C 4564.78,79.0792 4521.11,79.0792 4477.5,97C 4440.33,116.516 4418.16,147.016 4411,188.5C 4404.81,226.712 4412.14,262.045 4433,294.5C 4452.05,320.552 4473.55,344.386 4497.5,366C 4526.17,390 4554.83,414 4583.5,438C 4626.5,474.334 4665.34,514.501 4700,558.5C 4721.2,587.565 4736.53,619.565 4746,654.5C 4748.17,665.253 4750,675.92 4751.5,686.5 Z"/></g>
<g><path style="opacity:0.99" fill="#000000" d="M 1961.5,101.5 C 1963.81,104.795 1965.65,108.462 1967,112.5C 2034.39,286.945 2102.06,461.278 2170,635.5C 2185.32,668.359 2208.15,694.526 2238.5,714C 2249.67,720.052 2261.33,724.719 2273.5,728C 2217.5,728.5 2161.5,728.667 2105.5,728.5C 2087.33,676.828 2068.66,625.328 2049.5,574C 1978.5,573.333 1907.5,573.333 1836.5,574C 1817.34,625.328 1798.67,676.828 1780.5,728.5C 1738.83,728.667 1697.17,728.5 1655.5,728C 1666.78,724.678 1678.11,721.345 1689.5,718C 1704.96,712.523 1718.13,703.69 1729,691.5C 1731.59,687.326 1733.92,682.993 1736,678.5C 1810.88,486.02 1886.05,293.686 1961.5,101.5 Z M 1942.5,281.5 C 1975.44,370.136 2008.1,458.969 2040.5,548C 1975.5,548.667 1910.5,548.667 1845.5,548C 1878.13,459.275 1910.46,370.441 1942.5,281.5 Z"/></g>
<g><path style="opacity:0.989" fill="#000000" d="M 1046.5,135.5 C 1089.32,133.103 1131.32,137.77 1172.5,149.5C 1172.67,193.168 1172.5,236.835 1172,280.5C 1163.81,249.263 1148.31,222.429 1125.5,200C 1089.9,171.735 1051.23,166.735 1009.5,185C 983.325,201.833 969.991,226 969.5,257.5C 969.486,275.116 973.986,291.449 983,306.5C 995.324,324.83 1009.82,341.33 1026.5,356C 1056.78,380.949 1086.45,406.615 1115.5,433C 1135.97,452.458 1153.81,473.958 1169,497.5C 1197.88,549.979 1198.88,602.979 1172,656.5C 1148.58,693.141 1115.75,716.974 1073.5,728C 1036.38,735.591 999.042,736.591 961.5,731C 935.873,728.341 910.706,723.508 886,716.5C 885.167,673.163 885.333,629.829 886.5,586.5C 898.761,615.199 916.095,640.366 938.5,662C 974.899,692.765 1016.23,702.098 1062.5,690C 1093.02,678.121 1110.52,655.954 1115,623.5C 1117.3,604.585 1114.3,586.585 1106,569.5C 1093.47,549.288 1078.3,531.121 1060.5,515C 1036.54,495.376 1012.87,475.376 989.5,455C 965.484,433.991 943.984,410.824 925,385.5C 891.34,336.553 885.007,284.22 906,228.5C 927.6,183.243 962.767,154.41 1011.5,142C 1023.2,139.225 1034.87,137.058 1046.5,135.5 Z"/></g>
<g><path style="opacity:0.989" fill="#000000" d="M 1468.5,135.5 C 1511.31,132.868 1553.15,137.868 1594,150.5C 1594.67,193.833 1594.67,237.167 1594,280.5C 1586.63,256.089 1575.29,233.756 1560,213.5C 1530.03,179.401 1492.87,167.568 1448.5,178C 1418.1,187.734 1399.6,208.234 1393,239.5C 1388.31,265.045 1392.98,288.712 1407,310.5C 1417.74,324.914 1429.58,338.414 1442.5,351C 1469.87,374.343 1497.21,397.677 1524.5,421C 1550.04,444.183 1572.2,470.016 1591,498.5C 1620.94,552.505 1620.94,606.505 1591,660.5C 1569.42,693.396 1539.59,715.229 1501.5,726C 1474.3,733.353 1446.64,736.02 1418.5,734C 1380.97,731.901 1343.97,726.401 1307.5,717.5C 1307.33,673.832 1307.5,630.165 1308,586.5C 1320.36,616.381 1338.53,642.215 1362.5,664C 1401.16,695.431 1444.16,703.097 1491.5,687C 1522.19,671.422 1537.52,646.255 1537.5,611.5C 1536.93,589.61 1530.09,569.944 1517,552.5C 1507.94,540.435 1497.77,529.269 1486.5,519C 1459.17,495.667 1431.83,472.333 1404.5,449C 1382.84,429.346 1363.34,407.846 1346,384.5C 1312.58,335.433 1306.58,283.1 1328,227.5C 1349.69,183.347 1384.52,154.847 1432.5,142C 1444.52,139.151 1456.52,136.984 1468.5,135.5 Z"/></g>
<g><path style="opacity:0.989" fill="#000000" d="M 2503.5,135.5 C 2546.31,132.867 2588.14,137.867 2629,150.5C 2629.83,193.837 2629.67,237.171 2628.5,280.5C 2621.05,255.616 2609.55,232.949 2594,212.5C 2560.98,176.62 2521.15,166.12 2474.5,181C 2442.42,196.617 2426.09,222.45 2425.5,258.5C 2426.81,283.614 2435.64,305.614 2452,324.5C 2460.8,334.304 2469.97,343.804 2479.5,353C 2508.09,376.251 2536.09,400.251 2563.5,425C 2586.63,446.119 2606.8,469.619 2624,495.5C 2647.37,534.5 2653.71,576.167 2643,620.5C 2626.93,673.57 2592.43,708.404 2539.5,725C 2511.06,733.21 2482.06,736.21 2452.5,734C 2415.32,731.808 2378.65,726.308 2342.5,717.5C 2342.33,673.832 2342.5,630.165 2343,586.5C 2356.68,619.493 2377.18,647.327 2404.5,670C 2443.05,696.985 2484.38,702.318 2528.5,686C 2557.5,669.703 2572.17,644.703 2572.5,611C 2571.96,590.058 2565.46,571.225 2553,554.5C 2545.25,544.076 2536.75,534.243 2527.5,525C 2499.17,500.667 2470.83,476.333 2442.5,452C 2417.42,429.6 2395.26,404.766 2376,377.5C 2346.88,329.384 2342.54,279.051 2363,226.5C 2384.85,182.612 2419.68,154.445 2467.5,142C 2479.51,139.095 2491.51,136.928 2503.5,135.5 Z"/></g>
<g><path style="opacity:0.989" fill="#000000" d="M 2925.5,135.5 C 2967.97,133.293 3009.64,137.96 3050.5,149.5C 3050.67,193.168 3050.5,236.835 3050,280.5C 3041.81,249.263 3026.31,222.429 3003.5,200C 2967.9,171.735 2929.23,166.735 2887.5,185C 2861.18,201.963 2847.84,226.296 2847.5,258C 2847.56,275.405 2852.06,291.571 2861,306.5C 2866.33,313.833 2871.67,321.167 2877,328.5C 2900.05,352.892 2924.88,375.059 2951.5,395C 2976.66,416.824 3000.49,439.991 3023,464.5C 3040.09,483.992 3053.09,505.992 3062,530.5C 3077.85,584.31 3068.85,633.31 3035,677.5C 3001.91,712.662 2961.08,731.495 2912.5,734C 2862.09,735.511 2812.59,729.677 2764,716.5C 2763.17,673.163 2763.33,629.829 2764.5,586.5C 2776.76,615.199 2794.09,640.366 2816.5,662C 2852.9,692.765 2894.23,702.098 2940.5,690C 2970.73,678.372 2988.23,656.538 2993,624.5C 2995.99,600.117 2990.65,577.783 2977,557.5C 2965.31,541.804 2952.14,527.304 2937.5,514C 2909.58,491.416 2882.25,468.083 2855.5,444C 2828.45,419.64 2805.95,391.807 2788,360.5C 2765.37,310.534 2766.71,261.2 2792,212.5C 2815.19,176.337 2847.69,152.837 2889.5,142C 2901.51,139.095 2913.51,136.928 2925.5,135.5 Z"/></g>
<g><path style="opacity:0.992" fill="#000000" d="M 3567.5,141.5 C 3571.27,144.094 3574.94,146.927 3578.5,150C 3718.31,288.473 3858.14,426.973 3998,565.5C 3998.67,456.833 3998.67,348.167 3998,239.5C 3996.75,211.707 3986.58,187.874 3967.5,168C 3956.67,159.269 3944.34,153.603 3930.5,151C 3999.83,150.333 4069.17,150.333 4138.5,151C 4093.42,159.749 4067.92,186.915 4062,232.5C 4061.02,401.292 4060.02,569.959 4059,738.5C 3950.89,633.722 3842.72,528.888 3734.5,424C 3699.59,389.086 3664.75,354.252 3630,319.5C 3629.33,420.5 3629.33,521.5 3630,622.5C 3628.71,648.333 3635.04,671.999 3649,693.5C 3663.89,711.707 3683.06,722.874 3706.5,727C 3637.83,727.667 3569.17,727.667 3500.5,727C 3528.1,721.406 3547.26,705.572 3558,679.5C 3562.57,667.208 3565.57,654.541 3567,641.5C 3567.5,474.834 3567.67,308.167 3567.5,141.5 Z"/></g>
<g><path style="opacity:0.992" fill="#000000" d="M 3211.5,151.5 C 3271.67,150.335 3332,150.168 3392.5,151C 3381.05,154.393 3370.38,159.393 3360.5,166C 3350.63,174.229 3344.8,184.729 3343,197.5C 3341.76,215.8 3341.1,234.133 3341,252.5C 3340.33,376.833 3340.33,501.167 3341,625.5C 3341.1,644.2 3341.76,662.867 3343,681.5C 3346.86,700.364 3357.69,713.531 3375.5,721C 3381.23,722.848 3386.89,724.848 3392.5,727C 3332.5,727.667 3272.5,727.667 3212.5,727C 3229.57,723.059 3243.4,714.226 3254,700.5C 3257.52,694.601 3259.86,688.268 3261,681.5C 3262.21,668.207 3262.88,654.874 3263,641.5C 3263.67,506.167 3263.67,370.833 3263,235.5C 3262.85,222.464 3262.19,209.464 3261,196.5C 3256.68,176.509 3244.85,163.009 3225.5,156C 3220.85,154.393 3216.18,152.893 3211.5,151.5 Z"/></g>
<g><path style="opacity:0.031" fill="#1f201f" d="M 4209.5,271.5 C 4210.83,272.167 4210.83,272.167 4209.5,271.5 Z"/></g>
<g><path style="opacity:0.998" fill="#b5001f" d="M 1066.5,1013.5 C 1117.94,1011.49 1168.61,1016.66 1218.5,1029C 1220.05,1030.82 1220.71,1032.99 1220.5,1035.5C 1218.51,1065.86 1216.68,1096.19 1215,1126.5C 1212.75,1129.38 1209.91,1130.05 1206.5,1128.5C 1205.74,1109.1 1199.9,1091.43 1189,1075.5C 1178.96,1064.22 1166.79,1056.06 1152.5,1051C 1118.2,1039.27 1083.2,1036.6 1047.5,1043C 1012.21,1050.63 985.712,1070.13 968,1101.5C 952.098,1133.06 944.931,1166.56 946.5,1202C 945.44,1259.52 965.773,1307.86 1007.5,1347C 1054.67,1385.09 1107.33,1394.75 1165.5,1376C 1184.39,1367.1 1197.89,1352.94 1206,1333.5C 1208.25,1326.89 1210.25,1320.23 1212,1313.5C 1219.45,1310.78 1222.62,1313.44 1221.5,1321.5C 1219.29,1345.1 1215.46,1368.44 1210,1391.5C 1209.06,1394.66 1207.56,1397.49 1205.5,1400C 1192.6,1406.39 1178.93,1410.39 1164.5,1412C 1113.19,1419.15 1062.52,1416.15 1012.5,1403C 921.199,1370.35 875.199,1305.19 874.5,1207.5C 876.084,1134.12 907.75,1078.29 969.5,1040C 1000.06,1024.31 1032.4,1015.47 1066.5,1013.5 Z"/></g>
<g><path style="opacity:0.995" fill="#b5001f" d="M 3093.5,1016.5 C 3095.86,1016.34 3098.19,1016.5 3100.5,1017C 3101.13,1018.74 3101.46,1020.57 3101.5,1022.5C 3098.67,1045.1 3096.5,1067.77 3095,1090.5C 3093.09,1094.44 3090.09,1095.44 3086,1093.5C 3085.19,1084.7 3083.52,1076.03 3081,1067.5C 3078.56,1061.18 3074.06,1057.02 3067.5,1055C 3057.43,1051.71 3047.1,1050.04 3036.5,1050C 3016.83,1049.27 2997.17,1048.94 2977.5,1049C 2977,1049.5 2976.5,1050 2976,1050.5C 2975.17,1095.87 2975.34,1141.21 2976.5,1186.5C 3005.85,1187.89 3035.18,1187.73 3064.5,1186C 3074.03,1185.24 3081.36,1180.91 3086.5,1173C 3092.23,1171.06 3094.56,1173.06 3093.5,1179C 3090.65,1204.77 3088.48,1230.61 3087,1256.5C 3084.08,1260.32 3081.08,1260.32 3078,1256.5C 3078.12,1246.34 3076.12,1236.68 3072,1227.5C 3065.2,1220.02 3056.7,1216.19 3046.5,1216C 3023.51,1214.79 3000.51,1214.46 2977.5,1215C 2977,1215.5 2976.5,1216 2976,1216.5C 2975.33,1260.17 2975.33,1303.83 2976,1347.5C 2976,1357.51 2979.5,1366.01 2986.5,1373C 2997.14,1378.44 3008.47,1381.11 3020.5,1381C 3034.19,1381.69 3047.86,1381.36 3061.5,1380C 3078.44,1379.3 3090.61,1371.46 3098,1356.5C 3100.49,1348.19 3102.83,1339.86 3105,1331.5C 3107.67,1328.83 3110.33,1328.83 3113,1331.5C 3113.52,1355.11 3111.19,1378.44 3106,1401.5C 3104.73,1405.77 3101.9,1408.27 3097.5,1409C 3090.87,1409.94 3084.2,1410.44 3077.5,1410.5C 3030.81,1409.74 2984.14,1408.4 2937.5,1406.5C 2920.18,1407.33 2902.85,1408 2885.5,1408.5C 2880.42,1408.58 2875.42,1408.08 2870.5,1407C 2867.65,1403.9 2867.98,1401.24 2871.5,1399C 2881.1,1398.64 2890.43,1396.97 2899.5,1394C 2902.11,1392.06 2903.94,1389.56 2905,1386.5C 2909.17,1370.46 2911.17,1354.12 2911,1337.5C 2911.67,1247.83 2911.67,1158.17 2911,1068.5C 2911.13,1059.92 2909.79,1051.58 2907,1043.5C 2902.33,1036.74 2895.83,1032.91 2887.5,1032C 2879.52,1031.14 2871.52,1030.48 2863.5,1030C 2860.47,1026.13 2861.14,1023.13 2865.5,1021C 2873.83,1020.83 2882.17,1020.67 2890.5,1020.5C 2950.83,1021.56 3011.16,1021.73 3071.5,1021C 3079.21,1020.67 3086.54,1019.17 3093.5,1016.5 Z"/></g>
<g><path style="opacity:0.991" fill="#b5001f" d="M 2481.5,1016.5 C 2483.92,1016.19 2486.26,1016.53 2488.5,1017.5C 2489.05,1018.77 2489.38,1020.11 2489.5,1021.5C 2485.96,1043.02 2483.79,1064.69 2483,1086.5C 2483.28,1093.73 2480.11,1096.07 2473.5,1093.5C 2472.33,1085.11 2470.83,1076.77 2469,1068.5C 2466.43,1061.6 2461.6,1057.1 2454.5,1055C 2444.44,1051.71 2434.11,1050.05 2423.5,1050C 2404.16,1049.29 2384.83,1048.95 2365.5,1049C 2364.33,1049.5 2363.5,1050.33 2363,1051.5C 2362.01,1096.58 2362.34,1141.58 2364,1186.5C 2389.43,1187.66 2414.93,1187.83 2440.5,1187C 2449.67,1187.03 2458.33,1185.03 2466.5,1181C 2468.95,1178.1 2471.61,1175.43 2474.5,1173C 2478.77,1171.49 2481.1,1172.99 2481.5,1177.5C 2477.98,1202.71 2475.82,1228.04 2475,1253.5C 2473.92,1259.21 2470.92,1260.54 2466,1257.5C 2464.95,1250.51 2463.95,1243.51 2463,1236.5C 2461.38,1227.55 2456.21,1221.71 2447.5,1219C 2443.34,1217.26 2439.01,1216.26 2434.5,1216C 2410.94,1214.63 2387.44,1214.46 2364,1215.5C 2362.34,1257.75 2362.01,1300.08 2363,1342.5C 2363.01,1350.86 2364.67,1358.86 2368,1366.5C 2371.62,1371.12 2376.12,1374.62 2381.5,1377C 2403.64,1381.68 2425.98,1382.68 2448.5,1380C 2465.3,1379.7 2477.46,1372.2 2485,1357.5C 2487.96,1349 2490.29,1340.33 2492,1331.5C 2494.22,1329.38 2496.72,1329.05 2499.5,1330.5C 2500.78,1333.01 2501.45,1335.68 2501.5,1338.5C 2500.25,1357.6 2498.08,1376.6 2495,1395.5C 2494.65,1402.06 2491.48,1406.56 2485.5,1409C 2478.53,1409.92 2471.53,1410.42 2464.5,1410.5C 2418.14,1409.72 2371.81,1408.38 2325.5,1406.5C 2303.85,1407.7 2282.18,1408.2 2260.5,1408C 2257.77,1407.47 2256.44,1405.81 2256.5,1403C 2256.68,1401.34 2257.34,1400.01 2258.5,1399C 2265.69,1398.39 2272.86,1397.55 2280,1396.5C 2285.7,1395.66 2289.7,1392.66 2292,1387.5C 2295.97,1374.14 2297.97,1360.47 2298,1346.5C 2298.67,1251.5 2298.67,1156.5 2298,1061.5C 2298.98,1044.49 2291.14,1034.66 2274.5,1032C 2266.85,1031.18 2259.18,1030.51 2251.5,1030C 2247.2,1026.44 2247.53,1023.44 2252.5,1021C 2261,1020.83 2269.5,1020.67 2278,1020.5C 2338.5,1021.56 2399,1021.72 2459.5,1021C 2467.16,1020.45 2474.49,1018.95 2481.5,1016.5 Z"/></g>
<g><path style="opacity:0.995" fill="#b5001f" d="M 1578.5,1020.5 C 1625.83,1021.67 1673.17,1021.67 1720.5,1020.5C 1745.43,1019.33 1769.76,1022.49 1793.5,1030C 1820.96,1040.13 1838.8,1059.3 1847,1087.5C 1855.08,1123.79 1848.08,1156.79 1826,1186.5C 1814.2,1201.96 1800.7,1215.8 1785.5,1228C 1808.33,1257.5 1831.17,1287 1854,1316.5C 1870.74,1337.91 1888.91,1358.08 1908.5,1377C 1925.19,1391 1944.53,1398.34 1966.5,1399C 1969.54,1402.81 1968.87,1405.81 1964.5,1408C 1940.17,1408.67 1915.83,1408.67 1891.5,1408C 1872.42,1407.2 1855.75,1400.53 1841.5,1388C 1829.95,1376.45 1819.12,1364.29 1809,1351.5C 1785.69,1318.03 1762.19,1284.69 1738.5,1251.5C 1737.5,1251 1736.5,1250.5 1735.5,1250C 1718.94,1248.54 1702.44,1248.37 1686,1249.5C 1685.33,1281.83 1685.33,1314.17 1686,1346.5C 1686.3,1356.91 1687.3,1367.24 1689,1377.5C 1690.42,1387.92 1696.25,1394.08 1706.5,1396C 1716.16,1397.06 1725.83,1398.06 1735.5,1399C 1738.5,1403.33 1737.5,1406.33 1732.5,1408C 1706.12,1408.55 1679.78,1408.05 1653.5,1406.5C 1636.71,1407.48 1619.88,1408.15 1603,1408.5C 1596.73,1408.63 1590.56,1408.13 1584.5,1407C 1581.83,1404.33 1581.83,1401.67 1584.5,1399C 1591.71,1398.53 1598.88,1397.69 1606,1396.5C 1612.69,1395.65 1617.03,1391.98 1619,1385.5C 1620.16,1381.2 1621.16,1376.87 1622,1372.5C 1623.95,1352.55 1624.95,1332.55 1625,1312.5C 1625.67,1237.5 1625.67,1162.5 1625,1087.5C 1624.81,1075.47 1624.14,1063.47 1623,1051.5C 1621.47,1042.97 1616.64,1037.14 1608.5,1034C 1597.94,1031.66 1587.27,1030.16 1576.5,1029.5C 1574.23,1025.95 1574.9,1022.95 1578.5,1020.5 Z M 1701.5,1045.5 C 1754.65,1045.14 1784.15,1071.48 1790,1124.5C 1793.52,1152.93 1787.85,1179.26 1773,1203.5C 1757.55,1221.54 1738.05,1228.04 1714.5,1223C 1706.7,1222.42 1699.03,1221.09 1691.5,1219C 1689.15,1218.65 1687.32,1217.49 1686,1215.5C 1685.33,1160.5 1685.33,1105.5 1686,1050.5C 1687.8,1048.68 1689.97,1047.52 1692.5,1047C 1695.69,1046.82 1698.69,1046.32 1701.5,1045.5 Z"/></g>
<g><path style="opacity:0.998" fill="#b5001f" d="M 3477.5,1020.5 C 3542.5,1021.37 3607.5,1021.54 3672.5,1021C 3711.37,1020.81 3748.7,1028.14 3784.5,1043C 3835.17,1069.05 3866.34,1110.22 3878,1166.5C 3888.02,1221.39 3879.35,1273.05 3852,1321.5C 3827.17,1360.6 3792.5,1386.94 3748,1400.5C 3719.16,1409.17 3689.66,1413.5 3659.5,1413.5C 3623.14,1411.52 3586.81,1409.19 3550.5,1406.5C 3533.18,1407.35 3515.85,1408.02 3498.5,1408.5C 3493.39,1408.61 3488.39,1408.11 3483.5,1407C 3480.83,1404.33 3480.83,1401.67 3483.5,1399C 3491.56,1398.49 3499.56,1397.49 3507.5,1396C 3513.99,1393.88 3517.83,1389.38 3519,1382.5C 3522.72,1362.35 3524.39,1342.02 3524,1321.5C 3524.67,1240.5 3524.67,1159.5 3524,1078.5C 3523.67,1071.83 3523.33,1065.17 3523,1058.5C 3522.72,1043.55 3515.22,1034.72 3500.5,1032C 3492.52,1031.14 3484.52,1030.48 3476.5,1030C 3473.64,1026.38 3473.97,1023.21 3477.5,1020.5 Z M 3616.5,1045.5 C 3652.24,1044.12 3686.57,1050.29 3719.5,1064C 3773.05,1090.61 3803.89,1133.78 3812,1193.5C 3816.07,1228.59 3813.73,1263.26 3805,1297.5C 3791.43,1339.4 3763.6,1366.9 3721.5,1380C 3692.55,1387.43 3663.22,1389.43 3633.5,1386C 3618.56,1384.61 3605.73,1378.78 3595,1368.5C 3593.56,1366.73 3592.56,1364.73 3592,1362.5C 3590.34,1353.91 3589.34,1345.25 3589,1336.5C 3587.44,1246.17 3587.11,1155.84 3588,1065.5C 3586.08,1056.15 3589.58,1050.32 3598.5,1048C 3604.66,1047.25 3610.66,1046.42 3616.5,1045.5 Z"/></g>
</svg>
